<svg width="192" height="54" viewBox="0 0 192 54" fill="none" xmlns="http://www.w3.org/2000/svg">
<path d="M22.1286 0.698242H3.92816C1.74585 0.698242 0 2.44409 0 4.6264V44.9119C0 47.0942 1.74585 48.84 3.92816 48.84H22.1286C24.3109 48.84 26.0568 47.0942 26.0568 44.9119V4.6264C26.0568 2.44409 24.3109 0.698242 22.1286 0.698242ZM13.0066 45.9594C11.5663 45.9594 10.3878 44.7809 10.3878 43.3406C10.3878 41.9003 11.5663 40.7218 13.0066 40.7218C14.4469 40.7218 15.6254 41.9003 15.6254 43.3406C15.669 44.7809 14.4906 45.9594 13.0066 45.9594ZM22.9579 39.4561H3.09888V9.73302H22.9579V39.4561Z" fill="white"/>
<path d="M40.9407 7.85628L39.8495 11.217H38.4092L42.0318 0.567383H43.6904L47.313 11.217H45.829L44.6942 7.85628H40.9407ZM44.4324 6.80879L43.3848 3.75355C43.1666 3.05521 42.992 2.44415 42.8611 1.83311H42.8174C42.6865 2.44415 42.5119 3.09886 42.2937 3.75355L41.2462 6.85242H44.4324V6.80879Z" fill="white"/>
<path d="M48.7532 3.5791L50.2372 7.8565C50.4991 8.55485 50.7173 9.20956 50.8482 9.82062H50.8919C51.0665 9.20956 51.2847 8.55485 51.5466 7.8565L53.0305 3.5791H54.4709L51.4593 11.2173H50.1499L47.2256 3.5791H48.7532Z" fill="white"/>
<path d="M60.8874 9.38403C60.8874 10.0387 60.9311 10.6934 61.0184 11.2171H59.7526L59.6217 10.2569H59.5781C59.1852 10.868 58.3123 11.3917 57.2212 11.3917C55.6935 11.3917 54.8643 10.3006 54.8643 9.20946C54.8643 7.37635 56.5228 6.3725 59.4471 6.3725V6.19791C59.4471 5.58687 59.2725 4.40844 57.7013 4.45208C56.9593 4.45208 56.2173 4.67031 55.6935 5.01947L55.388 4.10293C55.9991 3.71012 56.9593 3.44824 57.9195 3.44824C60.2764 3.44824 60.8438 5.06313 60.8438 6.59073V9.38403H60.8874ZM59.5344 7.33271C58.0068 7.28906 56.3046 7.55092 56.3046 9.03487C56.3046 9.95142 56.9156 10.3442 57.614 10.3442C58.6178 10.3442 59.2725 9.73321 59.4908 9.07853C59.5344 8.94759 59.5344 8.77301 59.5344 8.64207V7.33271Z" fill="white"/>
<path d="M63.7245 2.1821C63.2007 2.1821 62.8516 1.78928 62.8516 1.26552C62.8516 0.785402 63.2007 0.392578 63.7681 0.392578C64.2919 0.392578 64.6411 0.785402 64.6411 1.26552C64.6411 1.74564 64.2919 2.1821 63.7245 2.1821ZM63.0698 11.217V3.57881H64.4665V11.217H63.0698Z" fill="white"/>
<path d="M66.6484 0H68.0451V11.2169H66.6484V0Z" fill="white"/>
<path d="M75.6834 9.38403C75.6834 10.0387 75.727 10.6934 75.8143 11.2171H74.5485L74.4176 10.2569H74.374C73.9811 10.868 73.1082 11.3917 72.0171 11.3917C70.4894 11.3917 69.6602 10.3006 69.6602 9.20946C69.6602 7.37635 71.3187 6.3725 74.243 6.3725V6.19791C74.243 5.58687 74.0684 4.40844 72.4972 4.45208C71.7552 4.45208 71.0132 4.67031 70.4894 5.01947L70.1839 4.10293C70.795 3.71012 71.7552 3.44824 72.7154 3.44824C75.0723 3.44824 75.6397 5.06313 75.6397 6.59073V9.38403H75.6834ZM74.3303 7.33271C72.8027 7.28906 71.1005 7.55092 71.1005 9.03487C71.1005 9.95142 71.7115 10.3442 72.4099 10.3442C73.4137 10.3442 74.0684 9.73321 74.2867 9.07853C74.3303 8.94759 74.3303 8.77301 74.3303 8.64207V7.33271Z" fill="white"/>
<path d="M77.822 0H79.2186V4.80108H79.2623C79.7424 3.92816 80.6153 3.40443 81.8811 3.40443C83.7579 3.40443 85.1109 4.97568 85.1109 7.28893C85.1109 10.0386 83.365 11.3917 81.6628 11.3917C80.5717 11.3917 79.6988 10.9552 79.0877 9.95136H79.0441L78.9568 11.2171H77.7783C77.822 10.6933 77.822 9.9077 77.822 9.25301V0ZM79.2186 8.16185C79.2186 8.33644 79.2186 8.51103 79.2623 8.68561C79.5242 9.64583 80.3535 10.3005 81.3573 10.3005C82.8413 10.3005 83.6706 9.12207 83.6706 7.37622C83.6706 5.84861 82.8849 4.53922 81.401 4.53922C80.4407 4.53922 79.5678 5.19392 79.3059 6.24143C79.2623 6.41602 79.2186 6.5906 79.2186 6.80883V8.16185Z" fill="white"/>
<path d="M86.7256 0H88.1223V11.2169H86.7256V0Z" fill="white"/>
<path d="M91.1343 7.63865C91.1779 9.51544 92.3564 10.3011 93.7531 10.3011C94.7569 10.3011 95.368 10.1265 95.8481 9.90826L96.11 10.8685C95.6298 11.0867 94.7569 11.3486 93.5348 11.3486C91.1779 11.3486 89.7812 9.77732 89.7812 7.50772C89.7812 5.19447 91.1343 3.36133 93.4039 3.36133C95.8917 3.36133 96.5464 5.54364 96.5464 6.94032C96.5464 7.24585 96.5464 7.46408 96.5028 7.59502L91.1343 7.63865ZM95.1934 6.6348C95.1934 5.76187 94.8442 4.36519 93.2729 4.36519C91.8326 4.36519 91.2652 5.67458 91.1343 6.6348H95.1934Z" fill="white"/>
<path d="M104.533 11.3916C102.482 11.3916 100.867 9.86393 100.867 7.46339C100.867 4.88826 102.569 3.4043 104.664 3.4043C106.847 3.4043 108.331 5.01921 108.331 7.33246C108.331 10.1695 106.367 11.3916 104.533 11.3916ZM104.577 10.344C105.887 10.344 106.89 9.0783 106.89 7.37609C106.89 6.06671 106.236 4.45179 104.621 4.45179C103.006 4.45179 102.264 5.9794 102.264 7.41973C102.308 9.07829 103.224 10.344 104.577 10.344Z" fill="white"/>
<path d="M110.033 5.63029C110.033 4.84464 110.033 4.18993 109.945 3.57887H111.167L111.255 4.84465H111.298C111.691 4.14629 112.564 3.4043 113.83 3.4043C114.877 3.4043 116.536 4.01536 116.536 6.67784V11.2608H115.139V6.85241C115.139 5.63029 114.703 4.58275 113.35 4.58275C112.433 4.58275 111.735 5.23748 111.473 6.02313C111.429 6.19772 111.386 6.4596 111.386 6.67784V11.3044H109.989V5.63029H110.033Z" fill="white"/>
<path d="M123.651 1.74609V3.57924H125.658V4.62676H123.651V8.72949C123.651 9.68971 123.913 10.2135 124.698 10.2135C125.091 10.2135 125.309 10.1698 125.484 10.1262L125.527 11.1737C125.266 11.261 124.829 11.3483 124.305 11.3483C123.651 11.3483 123.127 11.13 122.821 10.7809C122.429 10.3444 122.298 9.68972 122.298 8.77315V4.5831H121.119V3.53561H122.298V2.13892L123.651 1.74609Z" fill="white"/>
<path d="M127.142 0H128.538V4.75737H128.582C128.8 4.36456 129.149 4.01539 129.586 3.79716C129.979 3.53529 130.502 3.40437 131.026 3.40437C132.03 3.40437 133.689 4.01541 133.689 6.67778V11.2169H132.292V6.80871C132.292 5.54299 131.812 4.53914 130.502 4.53914C129.586 4.53914 128.887 5.15018 128.626 5.9358C128.538 6.11038 128.538 6.32861 128.538 6.59048V11.2169H127.142V0Z" fill="white"/>
<path d="M136.614 7.63865C136.658 9.51544 137.836 10.3011 139.233 10.3011C140.237 10.3011 140.848 10.1265 141.372 9.90826L141.633 10.8685C141.153 11.0867 140.28 11.3486 139.058 11.3486C136.701 11.3486 135.305 9.77732 135.305 7.50772C135.305 5.19447 136.658 3.36133 138.927 3.36133C141.415 3.36133 142.07 5.54364 142.07 6.94032C142.07 7.24585 142.07 7.46408 142.026 7.59502L136.614 7.63865ZM140.673 6.6348C140.673 5.76187 140.324 4.36519 138.753 4.36519C137.312 4.36519 136.745 5.67458 136.614 6.6348H140.673Z" fill="white"/>
<path d="M147.568 2.1821C147.044 2.1821 146.695 1.78928 146.695 1.26552C146.695 0.785402 147.044 0.392578 147.612 0.392578C148.136 0.392578 148.485 0.785402 148.485 1.26552C148.485 1.74564 148.136 2.1821 147.568 2.1821ZM146.914 11.217V3.57881H148.31V11.217H146.914Z" fill="white"/>
<path d="M150.58 0.6987C151.235 0.567761 152.108 0.480469 153.199 0.480469C154.552 0.480469 155.556 0.785992 156.167 1.35339C156.734 1.87715 157.127 2.61912 157.127 3.57934C157.127 4.53956 156.821 5.28155 156.298 5.84895C155.556 6.63458 154.377 7.0274 153.024 7.0274C152.631 7.0274 152.239 7.0274 151.933 6.94011V11.2174H150.58V0.6987ZM151.933 5.84895C152.239 5.93624 152.631 5.97988 153.068 5.97988C154.726 5.97988 155.73 5.1506 155.73 3.71027C155.73 2.26995 154.726 1.61526 153.199 1.61526C152.588 1.61526 152.151 1.6589 151.889 1.74619V5.84895H151.933Z" fill="white"/>
<path d="M158.786 0H160.183V4.75737H160.226C160.445 4.36456 160.794 4.01539 161.23 3.79716C161.623 3.53529 162.147 3.40437 162.671 3.40437C163.718 3.40437 165.333 4.01541 165.333 6.67778V11.2169H163.936V6.80871C163.936 5.54299 163.456 4.53914 162.147 4.53914C161.23 4.53914 160.532 5.15018 160.27 5.9358C160.183 6.11038 160.183 6.32861 160.183 6.59048V11.2169H158.786V0Z" fill="white"/>
<path d="M170.571 11.3916C168.519 11.3916 166.904 9.86393 166.904 7.46339C166.904 4.88826 168.607 3.4043 170.702 3.4043C172.884 3.4043 174.368 5.01921 174.368 7.33246C174.368 10.1695 172.404 11.3916 170.571 11.3916ZM170.614 10.344C171.924 10.344 172.927 9.0783 172.927 7.37609C172.927 6.06671 172.273 4.45179 170.658 4.45179C169.043 4.45179 168.301 5.9794 168.301 7.41973C168.301 9.07829 169.261 10.344 170.614 10.344Z" fill="white"/>
<path d="M176.026 5.63029C176.026 4.84464 176.026 4.18993 175.982 3.57887H177.205L177.292 4.84465H177.335C177.728 4.14629 178.601 3.4043 179.867 3.4043C180.914 3.4043 182.573 4.01536 182.573 6.67784V11.2608H181.176V6.85241C181.176 5.63029 180.696 4.58275 179.387 4.58275C178.47 4.58275 177.772 5.23748 177.51 6.02313C177.466 6.19772 177.423 6.4596 177.423 6.67784V11.3044H176.026V5.63029Z" fill="white"/>
<path d="M185.497 7.63865C185.54 9.51544 186.719 10.3011 188.115 10.3011C189.119 10.3011 189.73 10.1265 190.21 9.90826L190.472 10.8685C189.992 11.0867 189.119 11.3486 187.897 11.3486C185.54 11.3486 184.144 9.77732 184.144 7.50772C184.144 5.19447 185.497 3.36133 187.723 3.36133C190.21 3.36133 190.865 5.54364 190.865 6.94032C190.865 7.24585 190.865 7.46408 190.821 7.59502L185.497 7.63865ZM189.556 6.6348C189.556 5.76187 189.207 4.36519 187.635 4.36519C186.195 4.36519 185.628 5.67458 185.497 6.6348H189.556Z" fill="white"/>
<path d="M47.4875 18.4189L38.1035 45.9599H42.3808L45.1742 37.4925H54.2526L57.1333 45.9599H61.5415L52.1576 18.4189H47.4875ZM49.7134 22.9582C50.0189 24.1803 50.3681 25.446 50.8046 26.8427L53.3361 34.1317H46.1344L48.6223 26.7554C49.0151 25.6206 49.4079 24.3112 49.7134 22.9582Z" fill="white"/>
<path d="M73.6754 25.5771C70.8384 25.5771 68.5688 26.6683 67.0411 28.7633L66.8666 26.0136H63.0693L63.113 26.3628C63.2439 28.065 63.2876 29.9418 63.2876 32.6478V53.9034H67.4776V43.9958C68.787 45.5234 70.8384 46.4399 73.1953 46.4399C75.6394 46.4399 77.8654 45.4797 79.524 43.7339C81.3571 41.8135 82.3173 39.0201 82.3173 35.703C82.3173 32.7787 81.488 30.2473 79.8731 28.3705C78.2582 26.581 76.0759 25.5771 73.6754 25.5771ZM72.6279 29.0252C76.3378 29.0252 77.9963 32.4732 77.9963 35.8776C77.9963 40.2859 75.8577 42.9919 72.4533 42.9919C70.14 42.9919 68.0887 41.4207 67.5213 39.1074C67.434 38.7583 67.3903 38.2781 67.3903 37.7544V34.4373C67.3903 34.1318 67.4776 33.7826 67.5213 33.3898C67.5213 33.2588 67.5649 33.1715 67.5649 33.0406C68.2196 30.6837 70.3146 29.0252 72.6279 29.0252Z" fill="white"/>
<path d="M95.149 25.5771C92.312 25.5771 90.0424 26.6683 88.5148 28.7633L88.3402 26.0136H84.543V26.3628C84.6739 28.065 84.7176 29.9418 84.7176 32.6478V53.9034H88.9076V43.9958C90.217 45.5234 92.2684 46.4399 94.6253 46.4399C97.0694 46.4399 99.2954 45.4797 100.954 43.7339C102.787 41.8135 103.747 39.0201 103.747 35.703C103.747 32.7787 102.918 30.2473 101.303 28.3705C99.7319 26.581 97.5495 25.5771 95.149 25.5771ZM94.1015 29.0252C97.8114 29.0252 99.47 32.4732 99.47 35.8776C99.47 40.2859 97.3313 42.9919 93.9269 42.9919C91.6137 42.9919 89.5623 41.4207 88.9949 39.1074C88.9076 38.7583 88.8639 38.2781 88.8639 37.7544V34.4373C88.8639 34.1318 88.9512 33.7826 88.9949 33.3898C88.9949 33.2588 89.0385 33.1715 89.0385 33.0406C89.6932 30.6837 91.7882 29.0252 94.1015 29.0252Z" fill="white"/>
<path d="M122.035 30.1161C118.15 28.5885 116.884 27.4101 116.884 25.2278C116.884 23.3946 118.368 21.5178 121.642 21.5178C124.348 21.5178 126.094 22.478 126.53 22.7399L126.879 22.9581L128.058 19.4664L127.84 19.3355C127.141 18.9427 125.134 17.9824 121.773 17.9824C116.448 17.9824 112.738 21.125 112.738 25.6206C112.738 29.2432 115.051 31.7747 120.071 33.6079C123.606 34.9172 124.915 36.2703 124.915 38.6272C124.915 41.246 122.864 42.9046 119.634 42.9046C117.495 42.9046 115.313 42.2935 113.611 41.2024L113.262 40.9841L112.127 44.5631L112.345 44.6941C113.916 45.7416 116.884 46.5272 119.372 46.5272C126.53 46.5272 129.062 42.1626 129.062 38.409C129.105 34.4371 127.054 32.0802 122.035 30.1161Z" fill="white"/>
<path d="M136.612 21.2559L132.51 22.5216V25.9696H129.498V29.2868H132.51V39.5C132.51 41.9878 132.99 43.69 133.95 44.7812C134.867 45.7851 136.307 46.3524 137.965 46.3524C139.537 46.3524 140.671 46.0469 141.195 45.8723L141.413 45.785L141.195 42.4679L140.802 42.5989C140.279 42.7735 139.755 42.8171 138.882 42.8171C137.267 42.8171 136.569 41.8132 136.569 39.4127V29.3304H141.588V26.0133H136.569V21.2559H136.612Z" fill="white"/>
<path d="M151.977 25.5771C146.128 25.5771 142.069 29.9417 142.069 36.1831C142.069 42.2499 145.997 46.4399 151.672 46.4399H151.715C156.473 46.4399 161.623 43.1228 161.623 35.834C161.623 32.866 160.706 30.3346 158.96 28.4578C157.171 26.581 154.77 25.5771 151.977 25.5771ZM151.846 28.8506C155.6 28.8506 157.302 32.5169 157.302 35.9213C157.302 40.1113 154.989 43.1228 151.759 43.1228H151.715C148.573 43.1228 146.259 40.1549 146.259 36.0085C146.259 32.4732 148.005 28.8506 151.846 28.8506Z" fill="white"/>
<path d="M174.367 25.7517L174.105 25.7081C173.756 25.6208 173.451 25.5771 173.058 25.5771C170.876 25.5771 168.912 26.8429 167.82 28.9379L167.689 26.0136H163.979L164.023 26.3628C164.154 28.0213 164.198 29.8545 164.198 32.386L164.154 46.0037H168.344V35.3976C168.344 34.8302 168.388 34.2628 168.475 33.7827C168.955 31.2075 170.657 29.5926 172.883 29.5926C173.32 29.5926 173.625 29.6363 174.018 29.6799L174.455 29.7236V25.7517H174.367Z" fill="white"/>
<path d="M183.751 25.5332C178.208 25.5332 174.323 29.9851 174.323 36.3138C174.323 42.4242 178.164 46.396 184.144 46.396C187.286 46.396 189.468 45.6976 190.734 45.1302L190.996 44.9993L190.21 41.9004L189.861 42.0314C188.726 42.5115 187.199 42.9479 184.624 42.9479C182.791 42.9479 178.644 42.3369 178.382 36.8811L191.825 36.9248L191.869 36.6629C191.956 36.2265 192 35.6591 192 34.9171C192 30.5961 189.818 25.5332 183.751 25.5332ZM183.445 28.7194C184.711 28.7194 185.759 29.1122 186.501 29.8978C187.679 31.1199 187.897 32.9094 187.941 33.7823H178.426C178.819 31.3381 180.346 28.7194 183.445 28.7194Z" fill="white"/>
</svg>
