<svg width="220" height="56" viewBox="0 0 220 56" fill="none" xmlns="http://www.w3.org/2000/svg">
<path d="M0 0.195312V27.8053V55.4641L27.8538 27.8053L0 0.195312Z" fill="url(#paint0_linear_581_153)"/>
<path d="M35.366 20.3905L24.0977 13.9026L0 0V0.195121L27.8538 27.8052L35.366 20.3905Z" fill="url(#paint1_linear_581_153)"/>
<path d="M0 55.4642V55.6593L24.0977 41.7569L35.366 35.2691L27.8538 27.8057L0 55.4642Z" fill="url(#paint2_linear_581_153)"/>
<path d="M35.3657 20.3906L27.8535 27.8053L35.3657 35.2687L48.1951 27.8053L35.3657 20.3906Z" fill="url(#paint3_linear_581_153)"/>
<path d="M175.463 38.6344C174.439 38.6344 173.463 38.4392 172.585 38.049C171.707 37.6587 170.976 37.0734 170.39 36.2441H170.244C170.341 37.1709 170.439 38.049 170.439 38.9271V45.5613H168V22.2927H170L170.341 24.4878H170.439C171.073 23.6098 171.805 22.9756 172.634 22.5854C173.463 22.1951 174.439 22 175.512 22C177.659 22 179.268 22.7317 180.439 24.1952C181.61 25.6586 182.195 27.7074 182.195 30.3416C182.195 32.9758 181.61 35.0246 180.439 36.488C179.171 37.9027 177.561 38.6344 175.463 38.6344ZM175.122 24.0488C173.463 24.0488 172.293 24.4878 171.561 25.4147C170.829 26.3415 170.439 27.7562 170.439 29.7562V30.2928C170.439 32.5367 170.829 34.1465 171.561 35.1221C172.293 36.0978 173.512 36.5856 175.171 36.5856C176.537 36.5856 177.659 36.0002 178.439 34.8782C179.22 33.7563 179.61 32.1953 179.61 30.244C179.61 28.244 179.22 26.683 178.439 25.6098C177.659 24.5854 176.537 24.0488 175.122 24.0488Z" fill="#F9F9F9"/>
<path d="M187.755 38.3422H185.316V15.5127H187.755V38.3422Z" fill="#F9F9F9"/>
<path d="M201.756 38.3413L201.268 36.0486H201.17C200.39 37.073 199.561 37.7559 198.78 38.0974C198 38.4389 196.975 38.634 195.805 38.634C194.195 38.634 192.975 38.2437 192.048 37.4145C191.122 36.5852 190.683 35.4145 190.683 33.9023C190.683 30.6341 193.268 28.9755 198.488 28.7804L201.219 28.6829V27.7073C201.219 26.439 200.927 25.5122 200.39 24.9268C199.853 24.3414 198.975 24.0488 197.805 24.0488C196.488 24.0488 194.927 24.439 193.268 25.2683L192.536 23.4146C193.317 22.9756 194.195 22.6341 195.122 22.3902C196.048 22.1463 197.024 22 197.951 22C199.853 22 201.268 22.439 202.195 23.2683C203.122 24.0975 203.561 25.4634 203.561 27.3658V38.3413H201.756ZM196.292 36.634C197.805 36.634 198.975 36.195 199.853 35.3657C200.731 34.5365 201.17 33.3657 201.17 31.8536V30.3902L198.731 30.4877C196.78 30.5365 195.414 30.878 194.536 31.4145C193.658 31.9511 193.268 32.7804 193.268 33.9023C193.268 34.7804 193.512 35.4633 194.048 35.9023C194.585 36.3901 195.317 36.634 196.292 36.634Z" fill="#F9F9F9"/>
<path d="M204.976 22.2451H207.561L211.073 31.4158C211.854 33.5134 212.341 35.0256 212.488 35.9524H212.585C212.732 35.4646 212.976 34.5866 213.366 33.4158C213.756 32.1963 215.122 28.489 217.366 22.2939H220L213.171 40.5866C212.488 42.3914 211.707 43.6597 210.78 44.4402C209.854 45.2207 208.732 45.5622 207.415 45.5622C206.683 45.5622 205.951 45.4646 205.219 45.3183V43.367C205.756 43.4646 206.341 43.5622 207.024 43.5622C208.683 43.5622 209.902 42.6353 210.585 40.7329L211.463 38.4402L204.976 22.2451Z" fill="#F9F9F9"/>
<path d="M130.391 23.7557C131.172 24.3898 132.781 25.7557 132.781 28.2923C132.781 30.7801 131.367 31.9509 129.952 33.0728C129.513 33.5118 129.025 33.9997 129.025 34.7314C129.025 35.4631 129.513 35.8533 129.903 36.1948L131.123 37.1216C132.586 38.3899 133.952 39.5119 133.952 41.8534C133.952 45.0241 130.879 48.1949 125.123 48.1949C120.245 48.1949 117.903 45.8534 117.903 43.3656C117.903 42.1461 118.489 40.4387 120.489 39.268C122.586 37.9997 125.416 37.8046 126.928 37.707C126.44 37.1216 125.903 36.4875 125.903 35.4143C125.903 34.8289 126.05 34.4875 126.245 34.0972C125.855 34.146 125.513 34.146 125.172 34.146C121.611 34.146 119.611 31.5118 119.611 28.8777C119.611 27.3167 120.294 25.6093 121.757 24.3898C123.659 22.8288 125.952 22.5361 127.757 22.5361H134.684L132.538 23.7557H130.391ZM128.001 38.6826C127.708 38.6338 127.562 38.6338 127.22 38.6338C126.928 38.6338 125.123 38.6826 123.708 39.1704C122.977 39.4143 120.83 40.2436 120.83 42.6339C120.83 45.0241 123.172 46.7315 126.733 46.7315C129.952 46.7315 131.659 45.1705 131.659 43.1217C131.659 41.4143 130.538 40.4875 128.001 38.6826ZM128.977 32.2923C129.757 31.5118 129.806 30.4386 129.806 29.8533C129.806 27.4142 128.342 23.6581 125.562 23.6581C124.684 23.6581 123.757 24.0971 123.22 24.7801C122.635 25.463 122.489 26.3898 122.489 27.2679C122.489 29.5118 123.806 33.2679 126.684 33.2679C127.513 33.2192 128.391 32.8289 128.977 32.2923Z" fill="#F9F9F9"/>
<path d="M109.22 38.1457C103.902 38.1457 101.024 33.9993 101.024 30.2431C101.024 25.8528 104.634 22.0967 109.707 22.0967C114.634 22.0967 117.707 25.9504 117.707 29.9992C117.707 33.9505 114.683 38.1457 109.22 38.1457ZM113.415 35.414C114.244 34.3408 114.439 32.9749 114.439 31.7066C114.439 28.7309 113.024 23.1211 108.878 23.1211C107.756 23.1211 106.683 23.5601 105.854 24.2431C104.537 25.4138 104.293 26.8772 104.293 28.3407C104.293 31.6578 105.951 37.1213 110 37.1213C111.268 37.1213 112.634 36.4871 113.415 35.414Z" fill="#F9F9F9"/>
<path d="M91.0252 38.1457C85.7081 38.1457 82.8301 33.9993 82.8301 30.2431C82.8301 25.8528 86.4399 22.0967 91.513 22.0967C96.4399 22.0967 99.5131 25.9504 99.5131 29.9992C99.5131 33.9505 96.4887 38.1457 91.0252 38.1457ZM95.2204 35.414C96.0496 34.3408 96.2448 32.9749 96.2448 31.7066C96.2448 28.7309 94.8301 23.1211 90.6838 23.1211C89.5618 23.1211 88.4886 23.5601 87.6594 24.2431C86.3423 25.4138 86.0984 26.8772 86.0984 28.3407C86.0984 31.6578 87.7569 37.1213 91.8057 37.1213C93.074 37.1213 94.4399 36.4871 95.2204 35.414Z" fill="#F9F9F9"/>
<path d="M80.244 37.6095L75.4147 38.7315C73.4635 39.0242 71.7073 39.3169 69.8537 39.3169C60.5366 39.3169 56.9756 32.4875 56.9756 27.1216C56.9756 20.5849 62 14.4873 70.5854 14.4873C72.3903 14.4873 74.1464 14.78 75.7561 15.219C78.2927 15.9507 79.4635 16.8288 80.1952 17.3166L77.4147 19.9996L76.2439 20.2923L77.0732 18.9264C75.9025 17.8044 73.8537 15.7556 69.8537 15.7556C64.5366 15.7556 60.4878 19.8044 60.4878 25.707C60.4878 32.0485 65.0732 37.9998 72.4391 37.9998C74.5854 37.9998 75.7074 37.5608 76.7317 37.1705V31.7558L71.6586 32.0485L74.3415 30.5851H81.5123L80.6342 31.4143C80.3903 31.6095 80.3415 31.707 80.2927 31.9509C80.244 32.2436 80.244 33.2192 80.244 33.5607V37.6095Z" fill="#F9F9F9"/>
<path d="M141.024 36.6337C139.902 36.5362 139.658 36.3411 139.658 35.024V34.6337V15.9021C139.658 15.8534 139.658 15.7558 139.658 15.707C139.805 14.5363 140.146 14.3412 141.171 13.707H136.341L133.805 14.9265H136.39V34.6337V35.7557C136.39 36.4386 136.244 36.5362 135.463 37.5606H141.414L142.683 36.8289C142.195 36.7313 141.61 36.7313 141.024 36.6337Z" fill="#F9F9F9"/>
<path d="M154.781 36.9757C154.391 37.1708 154.049 37.4147 153.659 37.5611C152.537 38.0489 151.415 38.1952 150.391 38.1952C149.318 38.1952 147.659 38.1465 145.952 36.8782C143.562 35.2196 142.537 32.3416 142.537 29.805C142.537 24.6342 146.781 22.0488 150.196 22.0488C151.415 22.0488 152.635 22.3415 153.659 22.9757C155.318 24.0976 155.757 25.5122 156.001 26.2927L148.147 29.4635L145.562 29.6586C146.391 33.9025 149.269 36.3903 152.488 36.3903C154.196 36.3903 155.415 35.805 156.586 35.2196L154.781 36.9757ZM151.61 26.9757C152.244 26.7318 152.586 26.5366 152.586 26.0488C152.586 24.7318 151.074 23.1708 149.269 23.1708C147.903 23.1708 145.415 24.1952 145.415 27.8049C145.415 28.3903 145.464 28.9757 145.513 29.5611L151.61 26.9757Z" fill="#F9F9F9"/>
<path d="M158.001 22.2927V24.488H157.708V22.2927H156.977V22.0488H158.684V22.2927H158.001Z" fill="#F9F9F9"/>
<path d="M161.026 24.5368V22.2928L160.343 24.5368H160.148L159.465 22.2928V24.5368H159.221V22.0977H159.66L160.294 24.049L160.928 22.0977H161.367V24.5368H161.026Z" fill="#F9F9F9"/>
<path d="M63.7074 7.90266H62.0489C62.0489 7.65875 61.9025 7.02459 61.5611 5.9514H59.122C58.7806 7.02459 58.6342 7.65875 58.6342 7.90266H57.0732C57.0732 7.75631 57.4635 6.63434 58.2928 4.53674C59.122 2.43913 59.5123 1.26837 59.5123 1.07324H61.5123C61.5123 1.26837 61.9025 2.39034 62.6342 4.48795C63.3172 6.58556 63.7074 7.70753 63.7074 7.90266ZM61.2684 4.92698C60.683 3.12206 60.3903 2.14643 60.3903 2.00009H60.2928C60.2928 2.14643 60.0001 3.12206 59.3659 4.92698H61.2684Z" fill="#FCFCFD"/>
<path d="M70.4389 7.90229H69.1218C69.1218 7.75596 68.634 7.02426 67.6584 5.60966C66.634 4.14628 66.0974 3.1707 65.9511 2.63412H65.8535C65.9511 3.41459 65.9998 4.09751 65.9998 4.73164C65.9998 5.60967 65.9998 6.63403 66.0974 7.90229H64.8291C64.8779 6.82915 64.9267 5.60966 64.9267 4.3414C64.9267 3.07314 64.8779 2 64.8291 1.0732H66.3901C66.3901 1.26831 66.8291 2 67.7072 3.26826C68.634 4.63408 69.1706 5.56088 69.2681 6.04867H69.3657C69.2682 5.2682 69.2194 4.5853 69.2194 3.95117C69.2194 3.02436 69.1706 2.04878 69.1218 1.02441H70.4389C70.3901 1.90244 70.3413 2.97559 70.3413 4.29263C70.3901 5.65845 70.3901 6.82915 70.4389 7.90229Z" fill="#FCFCFD"/>
<path d="M78.049 4.24389C78.049 5.21948 77.7076 6.0975 77.0734 6.82919C76.4393 7.56088 75.5612 7.95112 74.3905 7.95112C73.8539 7.95112 73.171 7.95112 72.2441 7.90234C72.2929 6.8292 72.2929 5.65848 72.2929 4.34144C72.2929 3.07318 72.2929 2.00005 72.2441 1.07324H73.171C73.3173 1.07324 73.5612 1.07324 73.8539 1.07324C74.1466 1.07324 74.3417 1.07324 74.4393 1.07324C75.7076 1.07324 76.6344 1.36591 77.171 2.00005C77.7564 2.63418 78.049 3.36587 78.049 4.24389ZM76.6344 4.48779C76.6344 3.80488 76.4393 3.26831 76.049 2.78052C75.6588 2.3415 75.0734 2.09761 74.2442 2.09761C74.0978 2.09761 73.9027 2.0976 73.61 2.14638C73.6588 2.82929 73.6588 3.56098 73.6588 4.34144C73.6588 5.17069 73.6588 5.99994 73.7076 6.82919C73.9515 6.87797 74.1466 6.87797 74.3905 6.87797C75.1222 6.87797 75.7076 6.63408 76.049 6.19507C76.4393 5.70727 76.6344 5.12192 76.6344 4.48779Z" fill="#FCFCFD"/>
<path d="M85.0737 7.90266H83.5127C83.1225 6.68312 82.781 5.90261 82.5859 5.60992C82.3908 5.31723 82.0006 5.17089 81.5615 5.17089C81.3664 5.17089 81.1713 5.17089 80.9762 5.17089C80.9762 6.04896 80.9762 6.97581 81.0249 7.90266H79.5615C79.6103 6.82946 79.6103 5.6587 79.6103 4.3416C79.6103 3.07328 79.6103 2.00009 79.5615 1.07324H80.4883C80.5859 1.07324 80.8298 1.07324 81.1225 1.07324C81.464 1.07324 81.7566 1.07324 82.0493 1.07324C83.6591 1.07324 84.4396 1.60984 84.4396 2.73181C84.4396 3.60988 84.0005 4.19526 83.0737 4.53674V4.63429C83.4152 4.73185 83.7566 5.02455 84.0006 5.46358C84.2445 5.85383 84.5859 6.68312 85.0737 7.90266ZM83.0737 3.07329C83.0737 2.39035 82.6347 2.04887 81.7079 2.04887C81.3664 2.04887 81.0737 2.04886 80.8298 2.14643C80.8786 2.68302 80.8786 3.41476 80.8786 4.24404C81.0737 4.24404 81.2201 4.24404 81.3664 4.24404C82.5371 4.24404 83.0737 3.85379 83.0737 3.07329Z" fill="#FCFCFD"/>
<path d="M92.5853 4.34135C92.5853 5.41452 92.2439 6.29257 91.6097 7.02428C90.9756 7.70721 90.1463 8.09747 89.1707 8.09747C88.2439 8.09747 87.4634 7.756 86.878 7.12185C86.2439 6.4877 85.9512 5.65843 85.9512 4.63403C85.9512 3.56086 86.2926 2.68281 86.9268 1.9511C87.5609 1.26817 88.3902 0.87793 89.3658 0.87793C90.2927 0.87793 91.0731 1.21939 91.6585 1.85354C92.2439 2.53647 92.5853 3.36573 92.5853 4.34135ZM91.1219 4.4877C91.1219 3.75599 90.9268 3.17062 90.5853 2.73159C90.1951 2.29256 89.7561 2.04866 89.2195 2.04866C88.7317 2.04866 88.2926 2.29256 87.9024 2.73159C87.5609 3.17062 87.3658 3.75599 87.3658 4.4877C87.3658 5.21941 87.5609 5.80478 87.9512 6.24381C88.3414 6.68283 88.7804 6.92673 89.317 6.92673C89.8048 6.92673 90.2439 6.68283 90.6341 6.24381C90.9268 5.80478 91.1219 5.21941 91.1219 4.4877Z" fill="#FCFCFD"/>
<path d="M95.5132 7.90266H94.0498C94.0986 6.82946 94.0986 5.60992 94.0986 4.3416C94.0986 3.07328 94.0986 2.00009 94.0498 1.07324H95.5132C95.4644 1.95131 95.4644 3.0245 95.4644 4.3416C95.4644 5.6587 95.5132 6.82946 95.5132 7.90266Z" fill="#FCFCFD"/>
<path d="M103.123 4.24389C103.123 5.21948 102.782 6.0975 102.148 6.82919C101.514 7.56088 100.635 7.95112 99.4647 7.95112C98.9281 7.95112 98.2452 7.95112 97.3184 7.90234C97.3671 6.8292 97.3671 5.65848 97.3671 4.34144C97.3671 3.07318 97.3671 2.00005 97.3184 1.07324H98.2452C98.3915 1.07324 98.6354 1.07324 98.9281 1.07324C99.2208 1.07324 99.4159 1.07324 99.5135 1.07324C100.782 1.07324 101.709 1.36591 102.245 2.00005C102.831 2.63418 103.123 3.36587 103.123 4.24389ZM101.709 4.48779C101.709 3.80488 101.513 3.26831 101.123 2.78052C100.733 2.3415 100.148 2.09761 99.3184 2.09761C99.172 2.09761 98.9769 2.0976 98.6842 2.14638C98.733 2.82929 98.733 3.56098 98.733 4.34144C98.733 5.17069 98.733 5.99994 98.7818 6.82919C99.0257 6.87797 99.2208 6.87797 99.4647 6.87797C100.196 6.87797 100.782 6.63408 101.123 6.19507C101.513 5.70727 101.709 5.12192 101.709 4.48779Z" fill="#FCFCFD"/>
<path d="M113.219 7.90266H111.561C111.561 7.65875 111.414 7.02459 111.073 5.9514H108.634C108.292 7.02459 108.146 7.65875 108.146 7.90266H106.585C106.585 7.75631 106.975 6.63434 107.804 4.53674C108.634 2.43913 109.024 1.26837 109.024 1.07324H111.024C111.024 1.26837 111.414 2.39034 112.146 4.48795C112.829 6.58556 113.219 7.70753 113.219 7.90266ZM110.78 4.92698C110.195 3.12206 109.902 2.14643 109.902 2.00009H109.804C109.804 2.14643 109.512 3.12206 108.878 4.92698H110.78Z" fill="#FCFCFD"/>
<path d="M119.317 2.87815C119.317 3.70744 119.025 4.34161 118.391 4.73186C117.756 5.12211 117.025 5.31723 116.098 5.31723C115.952 5.31723 115.805 5.31723 115.756 5.31723C115.756 5.95139 115.756 6.82946 115.805 7.90266H114.342C114.391 6.87825 114.391 5.70748 114.391 4.3416C114.391 3.07328 114.391 2.00009 114.342 1.07324H115.269C115.415 1.07324 115.659 1.07324 116 1.07324C116.391 1.07324 116.683 1.07324 116.976 1.07324C117.659 1.07324 118.195 1.21958 118.635 1.51227C119.074 1.80496 119.317 2.24399 119.317 2.87815ZM117.952 3.17084C117.952 2.43912 117.464 2.04887 116.439 2.04887C116.195 2.04887 115.952 2.09765 115.659 2.14643C115.708 2.82937 115.708 3.56109 115.708 4.39038C115.805 4.39038 115.903 4.39038 116 4.39038C117.317 4.3416 117.952 3.95135 117.952 3.17084Z" fill="#FCFCFD"/>
<path d="M125.61 2.87815C125.61 3.70744 125.318 4.34161 124.684 4.73186C124.049 5.12211 123.318 5.31723 122.391 5.31723C122.245 5.31723 122.098 5.31723 122.049 5.31723C122.049 5.95139 122.049 6.82946 122.098 7.90266H120.635C120.684 6.87825 120.684 5.70748 120.684 4.3416C120.684 3.07328 120.684 2.00009 120.635 1.07324H121.562C121.708 1.07324 121.952 1.07324 122.293 1.07324C122.684 1.07324 122.976 1.07324 123.269 1.07324C123.952 1.07324 124.488 1.21958 124.927 1.51227C125.367 1.80496 125.61 2.24399 125.61 2.87815ZM124.245 3.17084C124.245 2.43912 123.757 2.04887 122.732 2.04887C122.488 2.04887 122.245 2.09765 121.952 2.14643C122.001 2.82937 122.001 3.56109 122.001 4.39038C122.098 4.39038 122.196 4.39038 122.293 4.39038C123.61 4.3416 124.245 3.95135 124.245 3.17084Z" fill="#FCFCFD"/>
<path d="M135.855 4.34135C135.855 5.41452 135.513 6.29257 134.879 7.02428C134.245 7.70721 133.416 8.09747 132.44 8.09747C131.513 8.09747 130.733 7.756 130.148 7.12185C129.513 6.4877 129.221 5.65843 129.221 4.63403C129.221 3.56086 129.562 2.68281 130.196 1.9511C130.83 1.26817 131.66 0.87793 132.635 0.87793C133.562 0.87793 134.343 1.21939 134.928 1.85354C135.562 2.53647 135.855 3.36573 135.855 4.34135ZM134.44 4.4877C134.44 3.75599 134.245 3.17062 133.904 2.73159C133.513 2.29256 133.074 2.04866 132.538 2.04866C132.05 2.04866 131.611 2.29256 131.221 2.73159C130.879 3.17062 130.684 3.75599 130.684 4.4877C130.684 5.21941 130.879 5.80478 131.269 6.24381C131.66 6.68283 132.099 6.92673 132.635 6.92673C133.123 6.92673 133.562 6.68283 133.952 6.24381C134.245 5.80478 134.44 5.21941 134.44 4.4877Z" fill="#FCFCFD"/>
<path d="M142.976 7.90229H141.659C141.659 7.75596 141.171 7.02426 140.195 5.60966C139.171 4.14628 138.635 3.1707 138.488 2.63412H138.391C138.488 3.41459 138.537 4.09751 138.537 4.73164C138.537 5.60967 138.537 6.63403 138.635 7.90229H137.366C137.415 6.82915 137.464 5.60966 137.464 4.3414C137.464 3.07314 137.415 2 137.366 1.0732H138.927C138.927 1.26831 139.366 2 140.244 3.26826C141.171 4.63408 141.708 5.56088 141.805 6.04867H141.903C141.805 5.2682 141.756 4.5853 141.756 3.95117C141.756 3.02436 141.756 2.04878 141.659 1.02441H142.976C142.927 1.90244 142.878 2.97559 142.878 4.29263C142.927 5.65845 142.927 6.82915 142.976 7.90229Z" fill="#FCFCFD"/>
<defs>
<linearGradient id="paint0_linear_581_153" x1="13.938" y1="0.188093" x2="13.938" y2="55.4582" gradientUnits="userSpaceOnUse">
<stop stop-color="#2079B0"/>
<stop offset="0.2863" stop-color="#4A93B8"/>
<stop offset="0.767" stop-color="#83BEBF"/>
<stop offset="1" stop-color="#97CFBF"/>
</linearGradient>
<linearGradient id="paint1_linear_581_153" x1="0.00287806" y1="13.9052" x2="35.3589" y2="13.9052" gradientUnits="userSpaceOnUse">
<stop stop-color="#5ABCAB"/>
<stop offset="1" stop-color="#E6E99A"/>
</linearGradient>
<linearGradient id="paint2_linear_581_153" x1="17.6806" y1="27.824" x2="17.6806" y2="55.6593" gradientUnits="userSpaceOnUse">
<stop stop-color="#E53432"/>
<stop offset="0.1668" stop-color="#D73948"/>
<stop offset="0.5748" stop-color="#B33F72"/>
<stop offset="0.8619" stop-color="#9A4189"/>
<stop offset="1" stop-color="#904192"/>
</linearGradient>
<linearGradient id="paint3_linear_581_153" x1="38.044" y1="20.4007" x2="38.044" y2="35.2455" gradientUnits="userSpaceOnUse">
<stop stop-color="#F18779"/>
<stop offset="0.1194" stop-color="#F2917A"/>
<stop offset="0.7128" stop-color="#FABC77"/>
<stop offset="1" stop-color="#FDCB73"/>
</linearGradient>
</defs>
</svg>
