<svg width="66" height="67" viewBox="0 0 66 67" fill="none" xmlns="http://www.w3.org/2000/svg">
<path d="M0 59.3884C0 64.3336 10.4384 67 20.2467 67C29.4656 67 39.2245 64.6483 40.3856 60.2738C42.1134 60.4428 43.9085 60.5295 45.7533 60.5295C55.5707 60.5295 66 57.863 66 52.9127L65.9998 7.61155C65.9998 2.66637 55.5659 0 45.753 0C35.9402 0 25.5694 2.662 25.5109 7.58417V7.61148V26.1412C23.7831 25.9721 22.0105 25.8854 20.2602 25.8854C10.4382 25.8854 0.0134925 28.5568 0.0134925 33.5022V59.3884L0 59.3884ZM5.37217 38.7718C5.50848 38.8601 5.66183 38.9176 5.82212 38.9408C9.72299 40.3701 15.0771 41.1143 20.2556 41.1143C25.4343 41.1143 30.7842 40.3701 34.6845 38.9408C34.8455 38.9183 34.9993 38.8589 35.1345 38.7672C36.2375 38.3566 37.2862 37.8092 38.2569 37.1371V42.128C38.2569 44.3564 31.4089 47.4568 20.26 47.4568C9.11043 47.4568 2.263 44.3564 2.263 42.128V37.1371C3.23017 37.8078 4.27419 38.3568 5.37204 38.7718L5.37217 38.7718ZM59.7321 31.3653H59.7906C61.2023 30.9093 62.5419 30.2498 63.7679 29.4063V34.7945C63.7679 35.6802 62.5306 37.0502 59.0618 38.2419C55.593 39.4337 50.8238 40.1049 45.7618 40.1049C43.962 40.1049 42.1938 40.0136 40.5111 39.8491V33.4567V33.4294C40.5183 33.3063 40.5183 33.1827 40.5111 33.0594C42.2073 33.2191 43.9755 33.306 45.7887 33.306C51.0396 33.3472 55.9976 32.644 59.7321 31.3655L59.7321 31.3653ZM59.1111 20.1093H59.0616C55.5432 21.3238 50.8235 21.9907 45.7616 21.9907C40.7001 21.9905 35.9803 21.3377 32.4667 20.123H32.4127C28.9797 18.9221 27.7559 17.5613 27.7559 16.6847V11.2465C31.3552 13.8539 38.716 15.2281 45.7528 15.2281C52.7897 15.2281 60.1507 13.8581 63.7498 11.251V16.6711C63.7677 17.5477 62.5441 18.9085 59.1111 20.1094L59.1111 20.1093ZM63.768 43.8537C63.768 44.7395 62.5307 46.1094 59.0618 47.3057C55.593 48.502 50.8192 49.1823 45.7618 49.1823C43.9621 49.1823 42.1939 49.0957 40.5111 48.9266V42.1596C42.1984 42.3239 43.9576 42.4063 45.7618 42.4063C51.0621 42.4063 56.0424 41.6985 59.7815 40.4063C61.1966 39.9545 62.5395 39.2961 63.7678 38.4519L63.768 43.8537ZM20.2557 49.7395C27.3017 49.7395 34.6536 48.3695 38.2527 45.7624V49.694C38.2166 49.8594 38.2166 50.0307 38.2527 50.1961V50.7579C38.2527 51.7899 36.6869 53.041 34.1673 53.9862H34.1132C30.6083 55.3104 25.5647 56.0685 20.2468 56.0685C14.9286 56.0685 9.89842 55.3106 6.3803 53.9862H6.33075C3.80665 53.0226 2.24089 51.7899 2.24089 50.7579L2.24066 45.7624C5.84918 48.365 13.21 49.7394 20.256 49.7394L20.2557 49.7395ZM20.2557 64.7168C9.10214 64.7168 2.25872 61.6163 2.25872 59.388V54.42C3.28345 55.1324 4.39502 55.7064 5.5657 56.1278H5.66479C9.4083 57.5295 14.7264 58.3332 20.2647 58.3332C25.8033 58.3332 31.1216 57.5295 34.8647 56.1278H34.9187H34.9183C36.1054 55.7062 37.2325 55.1274 38.2703 54.4063V58.7352C38.2284 58.909 38.2284 59.0908 38.2703 59.2648V59.3745C38.2613 61.6163 31.4183 64.7167 20.2555 64.7167L20.2557 64.7168ZM45.7624 58.2463C43.9626 58.2463 42.1989 58.1596 40.5117 57.9905L40.5115 51.2189C42.2032 51.3831 43.9579 51.4655 45.7622 51.4655C51.0624 51.4655 56.0382 50.7577 59.7819 49.4656V49.4654C61.1969 49.0135 62.5398 48.3553 63.7681 47.5109V52.9127C63.7681 55.1411 56.9201 58.2461 45.762 58.2461L45.7624 58.2463ZM45.7624 2.28261C56.9159 2.28261 63.7594 5.38303 63.7594 7.6114C63.7594 9.83976 56.9022 12.9402 45.7624 12.9402C34.622 12.9402 27.7654 9.83516 27.7654 7.60685C27.7652 5.37872 34.6088 2.28285 45.7624 2.28285V2.28261ZM27.7654 20.3283H27.7652C28.9882 21.1742 30.3248 21.837 31.7336 22.2964H31.7921C35.5263 23.5748 40.4847 24.2781 45.7624 24.2781C51.04 24.2781 55.9983 23.5748 59.7328 22.2964H59.7913C61.203 21.8406 62.5425 21.1808 63.7686 20.3374V25.7347C63.7686 26.6113 62.5448 27.9676 59.1118 29.1684H59.0622C55.5438 30.383 50.8242 31.0498 45.7622 31.0498H45.7624C43.676 31.0601 41.5906 30.944 39.5176 30.7028L39.2071 30.6617C37.1105 28.5612 32.7689 27.1228 27.7563 26.4059L27.7654 20.3283ZM20.2563 28.1688C22.302 28.1642 24.3464 28.2771 26.38 28.5066C26.4623 28.5287 26.547 28.5396 26.632 28.5387C32.5032 29.251 36.4316 30.8765 37.754 32.4018V32.4016C37.7755 32.4325 37.7995 32.4616 37.8259 32.4885C38.0788 32.7665 38.2297 33.1244 38.2534 33.5021C38.2534 34.525 36.8003 35.7304 34.1546 36.7395L34.0286 36.7852C30.9151 37.9497 26.1952 38.8309 20.2477 38.8309C14.2996 38.8309 9.57105 37.9451 6.45295 36.7852H6.45272C6.42089 36.7688 6.38793 36.755 6.35385 36.744C3.70372 35.7395 2.25056 34.5339 2.2416 33.5112C2.25954 31.2692 9.1074 28.1687 20.2564 28.1687L20.2563 28.1688Z" fill="white"/>
</svg>
